<?xml version="1.0" standalone="no"?>
<!DOCTYPE svg PUBLIC "-//W3C//DTD SVG 20010904//EN"
 "http://www.w3.org/TR/2001/REC-SVG-20010904/DTD/svg10.dtd">
<svg version="1.0" xmlns="http://www.w3.org/2000/svg"
 width="512.000000pt" height="512.000000pt" viewBox="0 0 512.000000 512.000000"
 preserveAspectRatio="xMidYMid meet">
<metadata>
Created by potrace 1.14, written by Peter Selinger 2001-2017
</metadata>
<g transform="translate(0.000000,512.000000) scale(0.100000,-0.100000)"
fill="#000000" stroke="none">
<path d="M2496 5075 c-16 -15 -26 -35 -26 -52 0 -115 -128 -382 -246 -513 -48
-53 -53 -104 -14 -145 24 -26 28 -27 90 -20 109 12 400 13 489 2 69 -9 88 -8
109 4 57 32 46 116 -48 369 -17 47 -35 97 -40 112 -17 55 -74 148 -114 188
-50 50 -82 68 -134 75 -32 4 -44 0 -66 -20z m149 -242 c15 -31 31 -68 35 -82
5 -14 26 -76 48 -138 39 -107 40 -111 19 -107 -35 8 -304 7 -316 0 -18 -11
-14 -3 49 111 33 59 68 128 77 153 9 25 20 49 25 55 4 5 8 19 8 30 0 22 8 35
20 35 4 0 19 -26 35 -57z"/>
<path d="M845 4390 c-61 -13 -100 -47 -108 -91 -4 -19 4 -40 30 -75 97 -136
163 -336 178 -543 4 -52 27 -79 77 -90 43 -10 57 1 138 99 86 104 158 176 268
267 56 46 103 89 103 94 1 5 2 15 3 22 5 31 -19 65 -72 102 -31 22 -59 40 -62
41 -3 0 -68 31 -145 68 -77 37 -168 76 -203 88 -66 21 -157 29 -207 18z m171
-164 c22 -7 92 -39 157 -70 65 -31 122 -56 126 -56 4 0 12 -5 18 -11 8 -8 -1
-22 -35 -51 -26 -22 -82 -75 -124 -119 l-77 -80 -11 43 c-34 135 -75 248 -128
351 -6 11 32 8 74 -7z"/>
<path d="M4228 4356 c-123 -92 -336 -165 -527 -180 -69 -6 -88 -16 -106 -59
-20 -48 -7 -73 69 -134 77 -62 254 -236 299 -294 44 -58 81 -96 99 -102 35
-12 73 13 115 76 38 56 60 99 164 326 69 149 73 305 9 366 -41 39 -71 39 -122
1z m6 -225 c-12 -43 -109 -258 -142 -319 -13 -22 -13 -22 -53 25 -22 27 -76
83 -120 125 l-79 77 57 15 c166 46 209 60 270 91 38 19 71 34 75 34 4 1 0 -21
-8 -48z"/>
<path d="M2410 4179 c-25 -4 -65 -9 -90 -12 -433 -58 -854 -324 -1107 -700
-267 -398 -343 -870 -219 -1347 49 -185 194 -460 321 -605 332 -381 763 -579
1255 -579 83 0 132 4 252 19 83 10 250 58 358 103 662 276 1063 943 997 1657
-10 105 -12 116 -38 230 -23 102 -84 265 -137 364 -203 383 -545 672 -942 796
-99 31 -158 46 -199 51 -19 3 -37 6 -40 8 -24 15 -334 26 -411 15z m340 -163
c14 -2 43 -7 64 -11 268 -40 566 -194 771 -400 123 -122 147 -152 228 -281
l25 -41 -546 1 c-301 1 -566 -2 -588 -6 -72 -15 -69 16 -68 -724 1 -362 2
-665 3 -671 0 -7 10 -22 21 -33 28 -28 80 -26 105 3 19 21 20 39 21 312 1 160
2 295 3 301 1 7 46 11 134 11 109 0 138 3 159 17 30 19 38 48 25 87 -13 41
-45 49 -190 49 l-132 0 0 247 1 248 532 2 c475 2 534 4 556 19 25 16 26 15 36
-11 5 -14 10 -30 10 -34 0 -5 -30 -37 -67 -71 -38 -34 -110 -101 -162 -148
-52 -48 -109 -100 -126 -117 -18 -16 -74 -68 -125 -115 -51 -47 -110 -101
-131 -120 -20 -19 -57 -53 -81 -75 -24 -22 -95 -88 -158 -146 -63 -59 -129
-119 -146 -135 -56 -51 -56 -116 -1 -139 40 -17 65 -7 124 47 75 71 240 223
376 348 27 25 64 59 81 75 18 17 77 71 131 120 104 96 146 135 210 194 22 20
61 56 87 79 l46 43 12 -53 c20 -92 21 -105 7 -119 -8 -8 -54 -51 -103 -95 -49
-45 -105 -97 -125 -115 -20 -19 -80 -74 -134 -124 -54 -49 -113 -103 -130
-120 -18 -16 -79 -73 -136 -125 -57 -52 -118 -109 -136 -126 -18 -17 -74 -69
-125 -115 -51 -46 -122 -112 -158 -146 -36 -34 -76 -71 -90 -83 -21 -18 -122
-111 -255 -235 -18 -16 -74 -68 -125 -115 -52 -47 -103 -94 -115 -105 -11 -11
-48 -46 -82 -77 l-61 -57 -73 20 c-41 11 -75 22 -77 24 -4 4 6 15 144 140 332
304 364 336 364 372 0 22 -8 38 -26 52 -43 34 -72 27 -136 -32 -31 -28 -85
-78 -120 -111 -34 -32 -108 -99 -162 -150 -55 -50 -127 -116 -160 -147 l-61
-57 -45 24 c-79 41 -78 40 -43 71 17 15 73 67 124 114 111 102 117 108 238
219 111 101 125 123 106 166 -14 33 -57 56 -87 45 -14 -5 -89 -69 -194 -167
-17 -16 -75 -69 -129 -119 -54 -49 -110 -101 -124 -115 -93 -87 -88 -84 -113
-67 -13 9 -36 27 -53 40 l-29 24 74 70 c41 38 103 94 137 124 70 62 93 107 73
145 -12 21 -36 36 -65 39 -20 2 -62 -25 -120 -80 -63 -58 -132 -123 -179 -165
l-27 -25 -20 25 c-11 14 -28 37 -39 51 l-19 26 47 46 c51 50 76 73 189 174 87
79 99 100 79 147 -24 57 -84 57 -142 2 -68 -66 -240 -223 -250 -229 -10 -5
-22 9 -44 53 l-31 60 28 26 c16 14 70 65 122 112 51 48 107 99 122 114 40 36
46 76 19 111 -16 20 -30 27 -55 27 -35 0 -61 -20 -210 -162 -38 -37 -75 -68
-80 -68 -6 0 -19 30 -29 67 l-17 66 62 56 c35 31 89 82 120 113 48 48 57 62
55 89 -2 20 -12 40 -29 55 -43 37 -70 24 -202 -98 -16 -15 -31 -25 -33 -23 -2
2 -6 36 -9 75 l-5 71 55 50 c59 53 79 91 66 125 -10 30 -46 53 -75 49 -13 -1
-24 1 -24 4 0 3 12 55 26 114 22 88 29 106 39 95 7 -7 50 -69 95 -138 46 -69
88 -129 94 -135 6 -5 55 -75 108 -155 53 -80 143 -212 199 -295 56 -82 146
-216 200 -296 54 -80 105 -152 114 -159 22 -18 86 -5 107 22 15 20 18 52 20
245 l3 223 110 -162 c61 -90 112 -167 114 -173 2 -5 7 -12 11 -15 4 -3 22 -31
40 -63 34 -61 54 -77 92 -77 28 0 68 33 69 58 1 9 2 312 3 672 2 712 3 703
-53 717 -33 8 -73 -8 -87 -34 -7 -15 -10 -185 -10 -548 1 -289 -1 -525 -4
-525 -3 1 -74 104 -159 230 -167 249 -182 263 -243 233 -16 -8 -31 -25 -35
-41 -4 -15 -7 -123 -6 -239 0 -117 -1 -213 -3 -213 -3 0 -203 293 -478 703
-114 170 -215 318 -225 329 -19 19 -18 21 21 91 65 115 134 210 220 302 237
253 537 404 903 454 61 8 310 6 355 -3z m1277 -1513 c-4 -49 -6 -96 -7 -106 0
-11 -7 -18 -17 -16 -38 3 -50 -3 -99 -48 -28 -27 -95 -88 -149 -138 -54 -49
-110 -101 -124 -115 -14 -14 -78 -72 -141 -130 -63 -58 -127 -116 -141 -130
-14 -14 -62 -58 -106 -98 -44 -40 -96 -87 -114 -105 -30 -28 -134 -124 -318
-292 -160 -147 -191 -181 -191 -209 l0 -28 -95 4 c-52 3 -98 7 -101 11 -3 3 7
18 22 32 16 15 69 64 118 108 106 98 115 106 243 225 56 51 109 100 120 110
11 9 69 63 129 118 60 56 123 114 139 129 43 39 222 204 266 245 20 19 74 69
120 110 94 86 100 92 238 220 156 145 206 190 210 190 2 0 1 -39 -2 -87z m-69
-390 c-48 -141 -108 -262 -137 -278 -33 -17 -47 -30 -306 -270 -60 -56 -136
-126 -169 -156 -32 -30 -94 -88 -138 -130 -75 -72 -83 -78 -176 -107 -53 -17
-126 -38 -162 -46 l-65 -15 81 77 c45 42 123 115 174 162 51 47 108 99 125
115 39 37 231 214 255 235 9 8 64 58 120 110 57 52 113 104 125 115 12 11 74
68 136 126 98 92 160 147 165 149 1 0 -11 -39 -28 -87z"/>
<path d="M3525 3104 c-16 -8 -37 -23 -46 -32 -9 -9 -63 -60 -120 -112 -199
-182 -209 -194 -209 -229 0 -21 8 -40 25 -55 36 -33 74 -24 137 35 29 28 91
84 137 127 142 129 181 169 182 183 6 72 -47 114 -106 83z"/>
<path d="M3095 3068 c-11 -6 -49 -39 -85 -73 -36 -35 -86 -82 -112 -107 -38
-35 -48 -51 -48 -76 0 -29 27 -71 48 -73 4 0 15 -2 24 -4 19 -3 54 22 176 130
101 88 120 120 102 165 -18 44 -64 61 -105 38z"/>
<path d="M659 2929 c-31 -4 -96 -22 -145 -39 -49 -17 -93 -32 -99 -34 -5 -1
-14 -4 -20 -7 -5 -4 -39 -16 -75 -28 -67 -22 -159 -71 -201 -106 -72 -60 -110
-145 -89 -199 11 -31 31 -40 125 -57 39 -6 86 -19 105 -26 48 -20 164 -77 170
-84 3 -3 12 -9 20 -13 35 -16 64 -36 122 -82 33 -27 72 -55 85 -62 31 -17 74
-8 103 23 20 21 22 30 16 82 -12 108 -15 387 -4 475 6 48 8 99 4 112 -9 38
-50 54 -117 45z m-44 -189 c-3 -10 -6 -86 -7 -169 0 -137 -6 -169 -23 -141
-11 18 -180 105 -274 141 l-95 37 45 23 c61 31 342 137 352 131 4 -2 5 -12 2
-22z"/>
<path d="M4371 2915 l-32 -28 7 -81 c10 -110 10 -371 0 -481 -7 -80 -6 -93 10
-113 28 -34 92 -32 215 6 197 62 380 138 411 171 9 11 25 25 35 33 52 37 90
123 77 172 -8 34 -39 52 -101 60 -129 15 -361 132 -484 243 -52 47 -96 53
-138 18z m169 -230 c7 -8 19 -15 26 -15 8 0 14 -4 14 -10 0 -5 4 -10 9 -10 5
0 35 -15 68 -33 32 -18 78 -41 103 -51 25 -10 54 -22 65 -27 11 -4 29 -9 39
-11 39 -6 25 -26 -41 -55 -71 -32 -101 -44 -118 -49 -5 -1 -53 -18 -106 -37
l-96 -35 3 31 c2 18 4 96 5 175 1 78 5 142 9 142 4 0 13 -7 20 -15z"/>
<path d="M1004 1524 c-36 -18 -87 -96 -153 -235 -114 -240 -130 -293 -125
-397 6 -132 93 -200 165 -130 22 21 109 72 164 95 97 41 253 78 375 88 68 6
100 36 100 94 0 34 -6 43 -47 77 -27 21 -61 50 -78 64 -51 42 -198 192 -245
249 -77 94 -84 101 -106 105 -11 2 -34 -2 -50 -10z m61 -220 c9 -14 61 -71
115 -125 l99 -99 -42 -10 c-159 -41 -319 -100 -333 -121 -3 -5 -11 -9 -19 -9
-20 0 5 80 65 205 26 55 56 119 66 142 10 23 22 43 25 43 4 0 14 -12 24 -26z"/>
<path d="M4068 1532 c-19 -2 -43 -23 -84 -75 -74 -92 -241 -259 -323 -322 -98
-77 -102 -116 -18 -179 60 -45 330 -177 423 -207 126 -41 248 -27 298 32 31
36 27 67 -18 128 -88 122 -158 331 -170 504 -2 37 -10 75 -17 83 -19 24 -61
40 -91 36z m-21 -264 c3 -56 54 -222 99 -316 19 -40 34 -75 34 -77 0 -12 -123
36 -249 96 l-145 70 40 31 c21 17 77 71 124 119 47 48 88 87 91 88 3 1 6 -5 6
-11z"/>
<path d="M2205 756 c-32 -49 -21 -118 56 -336 91 -256 170 -367 281 -394 67
-16 101 16 112 103 3 29 11 62 17 72 5 10 8 19 5 19 -13 0 55 143 129 268 16
27 58 86 72 100 62 64 74 109 43 159 -19 29 -44 34 -132 26 -99 -10 -362 -9
-474 1 l-92 9 -17 -27z m340 -148 l156 0 -28 -47 c-60 -102 -99 -178 -117
-226 -33 -93 -38 -105 -45 -105 -9 0 -43 67 -64 125 -8 22 -18 49 -23 60 -4
11 -8 25 -10 30 -2 6 -17 47 -34 93 -28 77 -28 83 -11 77 11 -3 90 -6 176 -7z"/>
</g>
</svg>
